<svg width="206" height="50" viewBox="0 0 206 50" fill="none" xmlns="http://www.w3.org/2000/svg">
<path d="M88.9672 30.4612C87.6748 30.4768 86.3825 30.8352 85.1516 30.3054C84.6747 30.1029 84.3208 30.3989 83.89 30.3989C81.1207 30.3833 78.3514 30.4457 75.582 30.3833C74.1666 30.3522 73.2588 28.95 73.5665 27.5322C74.0896 25.1329 74.6435 22.7336 75.1666 20.3499C75.6435 18.2466 77.1051 17.0625 79.2283 17.0469C81.4592 17.0469 83.69 17.0314 85.9363 17.0469C88.0594 17.0625 89.0287 18.2154 88.6133 20.2876C88.0902 22.8582 87.5364 25.4289 86.9517 27.9996C86.8594 28.4047 86.9209 28.6072 87.1825 28.8721C87.7671 29.4018 88.321 29.9315 88.9672 30.4612ZM84.0747 26.0054C84.4285 24.3072 84.767 22.6713 85.1055 21.0354C85.2747 20.2097 84.967 19.8046 84.1362 19.8202C82.7054 19.8202 81.2746 19.8202 79.8437 19.8202C79.1206 19.8202 78.6437 20.2097 78.4898 20.9263C78.0744 22.8271 77.6744 24.7434 77.2744 26.6597C77.1513 27.2674 77.3975 27.688 78.0129 27.7192C79.2591 27.7659 80.4899 27.7348 81.9823 27.7348C81.0592 26.8779 80.3207 26.1923 79.3668 25.3043C81.1361 25.4289 82.7208 24.868 84.0747 26.0054Z" fill="white"/>
<path d="M135.815 30.508C134.723 30.508 133.646 30.5547 132.554 30.4924C131.784 30.4456 131.538 29.8536 131.431 29.1525C131.354 28.6228 131.4 27.9996 131.123 27.5789C130.754 27.0337 130.23 27.7192 129.723 27.6724C128.6 27.5634 127.461 27.6257 126.323 27.6413C124.599 27.6724 123.953 28.8409 124.907 30.4457C123.799 30.5391 122.753 30.6014 121.722 30.4145C121.061 30.2898 120.845 29.7601 120.907 29.1058C120.953 28.654 121.169 28.28 121.415 27.9061C123.292 25.0083 125.153 22.0948 127.046 19.2125C127.507 18.5114 127.646 17.8882 126.83 17.0937C128.8 17.0469 130.538 16.8911 132.277 17.1716C133.046 17.2962 133.277 17.9661 133.384 18.6828C133.908 21.9079 134.431 25.1329 134.954 28.3579C135.077 29.0902 135.092 29.8536 136 30.2275C135.954 30.321 135.892 30.4145 135.815 30.508ZM129.984 20.4745C129.907 20.4589 129.83 20.4278 129.738 20.4122C128.753 21.9234 127.769 23.4503 126.676 25.1485C127.784 24.7122 128.677 24.868 129.569 24.8369C130.292 24.8057 130.692 24.572 130.523 23.7151C130.307 22.6401 130.169 21.5495 129.984 20.4745Z" fill="white"/>
<path d="M63.8123 17.0625C65.797 17.0937 67.474 16.9379 69.151 17.156C69.9356 17.2651 70.2433 17.8571 70.3664 18.5738C70.9049 21.9079 71.4741 25.2264 71.9665 28.5605C72.0742 29.2772 72.3511 29.8069 73.0434 30.3834C71.6434 30.3834 70.4587 30.4301 69.2894 30.3678C68.7048 30.3366 68.5202 29.7757 68.4432 29.2616C68.3356 28.6384 68.2432 27.9996 68.1509 27.3608C66.5816 27.9217 65.0123 27.579 63.4584 27.6569C62.9199 27.688 62.3968 27.7036 61.966 28.1087C61.2583 28.763 61.2276 29.3395 61.9507 30.4924C60.8122 30.5392 59.766 30.6482 58.7351 30.4457C57.8582 30.2587 57.6428 29.2616 58.2274 28.2801C58.9198 27.1272 59.6736 26.021 60.4121 24.8836C61.5814 23.0764 62.7353 21.2535 63.92 19.4618C64.4123 18.714 64.8277 18.0285 63.8123 17.0625ZM66.9047 20.1629C65.7662 21.9235 64.7816 23.4347 63.6277 25.2108C64.7662 24.6811 65.6739 24.8992 66.5509 24.8369C67.1201 24.8057 67.674 24.7123 67.5663 23.9333C67.3817 22.7804 67.1663 21.6274 66.9047 20.1629Z" fill="white"/>
<path d="M90.8752 17.1561C91.6753 17.1561 92.4599 17.1561 93.2599 17.1561C94.6754 17.1717 95.0754 17.6702 94.7985 19.0257C94.3215 21.3003 93.8446 23.575 93.3522 25.8497C93.0753 27.1584 93.1984 27.3142 94.5369 27.3297C95.2754 27.3297 95.9985 27.3142 96.737 27.3297C97.5832 27.3609 98.0601 26.9247 98.2294 26.1457C98.7832 23.7152 99.291 21.2692 99.8448 18.8387C99.9833 18.2155 99.7525 17.7481 99.2756 17.1561C100.445 17.1561 101.43 17.1093 102.414 17.1717C103.199 17.2184 103.553 17.7949 103.399 18.5271C102.737 21.6587 102.106 24.7902 101.322 27.8906C100.906 29.5733 99.4448 30.5236 97.7063 30.5236C95.8754 30.5236 94.0446 30.4925 92.2137 30.4613C90.0444 30.4146 89.1367 29.2617 89.5829 27.1116C90.1367 24.4786 90.6906 21.83 91.2445 19.197C91.3829 18.5271 91.5522 17.8416 90.7214 17.3742C90.7675 17.2963 90.8137 17.2184 90.8752 17.1561Z" fill="white"/>
<path d="M79.471 35.6646C79.1327 34.774 78.4562 34.774 77.7458 34.7911C76.325 34.8254 74.8873 34.8082 73.4665 34.7911C72.8068 34.774 72.3502 35.0138 72.0795 35.6475C71.6567 36.6409 71.8258 36.8636 72.8745 36.8465C74.346 36.8122 75.8006 36.8122 77.2722 36.8465C78.49 36.8807 79.268 37.7371 79.1327 38.9703C79.0143 39.9124 78.8283 40.8887 78.5069 41.7794C78.0333 43.0982 77.0015 43.9204 75.5977 43.9546C73.6525 44.006 71.7074 43.9889 69.7792 43.9204C68.4261 43.869 67.5466 42.9098 67.7833 41.5567C68.1893 39.1588 68.7136 36.7608 69.3056 34.3971C69.6608 32.9755 70.9463 32.1705 72.4855 32.1362C74.0585 32.102 75.6315 32.1191 77.2045 32.1362C79.4372 32.1362 80.2829 33.4037 79.471 35.6646ZM73.5172 41.2655C73.9908 41.2655 74.4813 41.2141 74.938 41.2826C75.936 41.4197 75.9867 40.7003 76.0543 40.0494C76.1389 39.2958 75.6315 39.1074 75.0226 39.0902C73.957 39.0731 72.9083 39.1074 71.8427 39.0731C71.4368 39.0731 71.3015 39.2101 71.1831 39.6041C70.811 40.9401 71.0139 41.2484 72.4178 41.2484C72.7899 41.2655 73.1451 41.2655 73.5172 41.2655Z" fill="white"/>
<path d="M84.5116 43.9889C83.5982 43.9889 82.6849 44.0231 81.7715 43.9889C80.3676 43.9375 79.505 42.9612 79.7587 41.5567C80.1816 39.2273 80.6552 36.8978 81.1964 34.5855C81.5516 33.0783 82.7864 32.1534 84.3425 32.1362C86.1015 32.102 87.8606 32.102 89.6197 32.1362C91.125 32.1534 91.9369 32.9584 91.7339 34.4485C91.3957 36.9492 90.9051 39.4157 90.1778 41.8307C89.755 43.2352 88.6556 43.9717 87.1671 43.9889C86.2707 44.006 85.3911 43.9889 84.5116 43.9889ZM85.019 41.2312C85.4588 41.2312 85.8986 41.2484 86.3383 41.2141C86.9303 41.1799 87.4039 40.9058 87.5392 40.2721C87.8437 38.8676 88.1481 37.4631 88.4188 36.0414C88.571 35.3049 88.2665 34.911 87.5054 34.8939C86.7781 34.8939 86.0508 34.8939 85.3235 34.8939C84.4609 34.8939 83.9704 35.3392 83.8012 36.1956C83.5644 37.4288 83.3614 38.662 83.0401 39.8781C82.7864 40.8373 83.1077 41.2141 84.0211 41.2141C84.3594 41.2313 84.6977 41.2312 85.019 41.2312Z" fill="white"/>
<path d="M59.1911 39.2786C59.1741 37.189 59.6139 36.7094 61.4914 36.7265C62.4386 36.7437 63.3688 36.658 64.3329 36.8978C65.0433 37.0691 64.8235 36.2983 64.908 35.9215C65.0772 35.2707 64.8573 34.8253 64.0962 34.8253C62.5908 34.8253 61.0854 34.8253 59.597 34.8253C58.8359 34.8253 58.024 34.7054 57.4151 35.7331C57.3812 34.6541 57.5842 33.9347 57.7872 33.2324C58.024 32.4103 58.6667 32.0506 59.4617 32.0506C61.6943 32.0335 63.927 31.9821 66.1597 32.0677C67.868 32.1362 68.5276 33.1296 68.1894 34.8596C67.7496 37.0862 67.7496 37.0862 66.498 38.0797C67.665 39.3643 67.0054 40.7516 66.5487 42.0191C66.1258 43.2352 65.0603 43.8689 63.7917 43.9032C61.5252 43.9546 59.2418 43.9375 56.9753 43.9375C56.0958 43.9375 55.6729 43.4921 55.8082 42.6015C55.9097 41.9164 56.0789 41.2312 56.2649 40.2549C56.7893 41.1627 57.432 41.2312 58.1424 41.2141C59.5632 41.197 61.0009 41.2312 62.4217 41.2655C63.0136 41.2826 63.5042 41.1456 63.8424 40.6146C64.3837 39.7582 64.0454 39.0388 63.0475 39.0731C61.7958 39.0902 60.5104 38.8333 59.1911 39.2786Z" fill="white"/>
<path d="M117.507 17.2183C116.199 17.8104 116.261 19.0723 116.03 20.1941C115.569 22.4064 115.138 24.6188 114.676 26.8156C114.522 27.5167 114.661 27.8283 115.43 27.7815C116.292 27.7348 117.169 27.7504 118.03 27.7815C118.938 27.8127 119.83 27.8283 120.553 26.7065C120.538 27.8438 120.353 28.654 120.046 29.4018C119.784 30.0562 119.184 30.4924 118.476 30.4924C115.553 30.5236 112.645 30.508 109.63 30.4301C111.122 29.5109 110.876 27.9217 111.199 26.5819C111.83 23.9333 112.292 21.2379 112.845 18.5738C113.107 17.2962 113.476 17.0002 114.753 17.0002C115.584 17.0002 116.415 17.0158 117.246 17.0158C117.292 17.0158 117.338 17.0937 117.507 17.2183Z" fill="white"/>
<path d="M105.476 17.1872C106.676 17.1249 107.707 17.0314 108.722 17.047C109.568 17.0626 109.814 17.5144 109.599 18.5582C109.214 20.5369 108.784 22.5155 108.368 24.4786C108.076 25.834 107.783 27.1739 107.491 28.5294C107.337 29.2149 107.368 29.8381 108.06 30.4301C106.891 30.5859 105.891 30.6171 104.922 30.4613C104.106 30.3366 103.768 29.62 103.983 28.5449C104.429 26.3014 104.937 24.0735 105.414 21.83C105.599 21.0043 105.783 20.1941 105.983 19.3684C106.168 18.6206 106.337 17.8727 105.476 17.1872Z" fill="white"/>
<path d="M41.6726 45.0491C43.6144 45.1781 45.5033 45.0491 47.339 44.4903C48.7503 44.0498 49.96 43.2653 50.9575 42.1585C51.1803 41.9114 51.3183 41.8147 51.4987 42.1693C51.5199 42.2123 51.5517 42.2445 51.5729 42.2875C53.5042 45.1781 52.6447 47.4776 49.3233 48.5629C47.4557 49.1754 45.5775 49.4118 43.625 49.4118C33.5973 49.4118 23.5802 49.4226 13.5525 49.4441C11.7698 49.4441 10.0189 49.2506 8.35295 48.5844C7.29182 48.1546 6.37924 47.5206 5.59401 46.6609C5.0316 46.0484 4.90427 45.3607 5.06344 44.587C5.24383 43.7059 5.6789 42.943 6.16702 42.2015C6.30496 41.9974 6.41108 41.8899 6.63392 42.137C8.77741 44.4796 11.5682 45.0169 14.5394 45.0813C14.9957 45.0921 15.4626 45.0813 15.9507 45.0813C15.8233 44.7912 15.5687 44.7482 15.3564 44.673C13.5313 44.0498 11.8971 43.0504 10.3479 41.9221C8.50151 40.5682 8.14073 39.1175 9.03208 36.9791C9.33981 36.2484 9.71121 35.5607 10.2418 34.8515C10.9952 36.2484 11.9078 37.452 13.1174 38.3976C14.3165 39.3217 15.6217 39.9879 17.1285 40.2458C16.7041 39.9342 16.2584 39.6548 15.8552 39.3217C13.8708 37.6561 12.7567 35.4963 12.3534 32.9388C12.2473 32.2618 12.364 31.5848 12.5126 30.9294C13.0326 28.7158 15.4095 24.2241 17.0543 22.3973C16.6935 23.805 16.4176 25.1052 16.269 26.427C16.0356 28.5223 16.0568 30.607 16.5767 32.6702C17.2983 35.4963 20.4074 37.4949 23.2301 36.9577C23.8455 36.8395 24.3973 36.5708 24.9491 36.1302C25.2993 37.28 25.5645 38.3761 25.9784 39.4184C26.5514 40.8261 27.2518 42.137 28.3447 43.2331C28.7692 43.6522 28.9496 43.5555 29.2679 43.1686C30.8172 41.2774 31.9101 39.1498 32.5999 36.7965C32.6529 36.6245 32.7166 36.4526 32.7696 36.2699C35.5498 38.2901 40.7069 36.3237 41.3012 31.6278C41.6938 28.6083 41.4285 25.664 40.6645 22.752C40.8979 22.666 40.9722 22.8379 41.0571 22.9561C42.5745 25.1805 43.9752 27.48 44.8666 30.0482C45.9277 33.1 44.856 35.6574 43.0626 38.0322C42.3623 38.9671 41.4497 39.6763 40.431 40.2458C40.9828 40.3318 42.0121 39.9879 43.1794 39.3109C44.0813 38.7952 44.909 38.1612 45.6306 37.3982C46.3309 36.6568 46.8827 35.8079 47.4133 34.8408C48.1561 36.0013 48.7822 37.1296 49.0156 38.4298C49.1748 39.2895 49.005 40.0846 48.4426 40.7831C46.7766 42.8463 44.5482 43.996 42.097 44.7697C41.9803 44.8127 41.7893 44.7697 41.6726 45.0491Z" fill="white"/>
<path d="M17.8818 33.3256C17.4149 32.3155 17.277 31.3914 17.2027 30.478C16.9693 27.6412 17.3194 24.8581 18.2108 22.1502C18.752 20.4954 19.2931 18.8405 19.8874 17.1965C20.5134 15.4664 21.5427 13.9298 22.4023 12.318C24.4503 8.49253 26.5301 4.67783 28.5993 0.86314C28.663 0.744939 28.7478 0.626737 28.854 0.444061C29.6392 1.89472 30.4032 3.30239 31.1672 4.71007C33.2364 8.52476 35.295 12.3502 37.3749 16.1541C37.7569 16.8526 37.9373 17.6263 38.1813 18.3677C38.8923 20.5061 39.773 22.5908 40.155 24.8259C40.5689 27.2544 40.7917 29.6936 40.2187 32.1329C40.1338 32.4875 40.0914 32.8636 39.773 33.2504C36.1227 26.5559 32.5043 19.9151 28.8433 13.1884C25.1824 19.9151 21.564 26.5559 17.8818 33.3256Z" fill="white"/>
<path d="M32.6211 24.3745C32.6318 25.3094 31.9739 25.8252 31.3584 26.2873C30.8384 26.6741 30.6474 26.8783 31.1249 27.5015C31.8041 28.4041 31.9632 29.5539 32.08 30.6715C32.2391 32.2511 32.5681 33.7555 33.608 34.9805C33.5549 35.0557 33.5337 35.1094 33.5019 35.1202C33.0031 35.1954 32.3771 34.916 32.0375 35.2491C31.7404 35.5392 31.7828 36.1625 31.6449 36.6245C31.1037 38.4728 30.2442 40.1599 29.1618 41.7395C28.8223 42.2445 28.6313 42.1263 28.3342 41.718C27.0608 39.9772 26.4135 37.9677 25.9784 35.8831C25.8193 35.0987 25.5646 34.7226 24.7475 34.8945C24.6626 34.916 24.5671 34.8837 24.408 34.8623C24.7475 34.5506 25.0659 34.3035 25.3524 34.0134C25.7344 33.6373 25.9997 33.1752 26.1376 32.6379C26.3817 31.6171 25.9466 30.7682 25.0553 30.564C23.9941 30.3169 23.4423 30.7467 23.1877 32.1544C22.4661 31.4129 21.787 30.7359 21.5747 29.7473C21.4156 28.9844 21.6596 28.619 22.4024 28.4041C23.0391 28.2107 23.6758 28.2859 24.3231 28.2967C24.4716 28.2967 24.5777 28.3504 24.6414 28.5116C24.8536 29.0704 25.2144 29.4357 25.8511 29.2638C26.4878 29.0919 26.838 28.619 26.9547 27.9636C26.9653 27.8776 26.9547 27.7809 26.9547 27.6519C26.6363 27.8669 26.3604 28.0925 26.0421 28.2537C25.7556 28.4041 25.4267 28.5223 25.1614 28.2C24.9067 27.8883 24.9491 27.5445 25.1295 27.2221C25.3205 26.8568 25.6495 26.6419 26.0103 26.4699C26.5515 26.2013 27.1351 26.0186 27.7293 25.9864C29.512 25.8897 31.1462 25.3631 32.6424 24.3853L32.6211 24.3745Z" fill="white"/>
</svg>
